<?xml version="1.0" standalone="no"?>
<!DOCTYPE svg PUBLIC "-//W3C//DTD SVG 20010904//EN"
 "http://www.w3.org/TR/2001/REC-SVG-20010904/DTD/svg10.dtd">
<svg version="1.0" xmlns="http://www.w3.org/2000/svg"
 width="472.000000pt" height="472.000000pt" viewBox="0 0 472.000000 472.000000"
 preserveAspectRatio="xMidYMid meet">
<metadata>
Created by potrace 1.11, written by Peter Selinger 2001-2013
</metadata>
<g transform="translate(0.000000,472.000000) scale(0.100000,-0.100000)"
fill="#000000" stroke="none">
<path d="M3428 3483 c-72 -29 -89 -155 -28 -218 33 -34 48 -80 42 -129 -4 -32
11 -32 -192 -2 -195 29 -455 12 -610 -40 -24 -9 -50 -20 -57 -26 -13 -10 -48
-113 -59 -172 -30 -164 -26 -374 10 -511 13 -49 21 -96 18 -103 -9 -24 -128 9
-231 64 -48 26 -59 37 -91 102 -54 106 -82 132 -141 132 -54 0 -99 -17 -99
-37 0 -7 -8 -13 -17 -14 -10 0 -46 -2 -81 -4 -91 -4 -147 -23 -196 -66 -67
-59 -89 -114 -89 -219 1 -102 21 -157 77 -212 35 -34 118 -72 181 -83 17 -3
40 -7 52 -9 26 -6 143 -18 198 -21 22 -2 123 -3 225 -4 l186 -1 12 -71 c7 -39
20 -84 28 -99 16 -25 15 -31 -7 -96 -31 -94 -30 -86 -31 -204 -2 -139 16 -174
105 -204 56 -19 111 -14 166 14 50 25 75 61 91 130 44 196 105 262 255 275
l70 7 39 -51 c137 -182 332 -278 543 -269 75 3 84 6 114 33 41 39 59 83 59
144 0 54 -27 127 -56 152 -21 18 -66 34 -127 44 l-39 6 6 92 c15 221 17 253
21 264 6 19 48 6 70 -21 11 -13 35 -43 54 -66 19 -23 50 -49 68 -57 31 -12 38
-12 59 2 16 10 24 25 24 45 0 27 26 54 47 48 28 -7 103 16 130 41 50 45 67 88
67 162 0 55 -5 72 -30 110 -47 70 -76 79 -271 85 -92 3 -174 7 -182 10 -10 3
-12 21 -5 92 5 48 8 138 7 200 -1 101 -4 116 -27 156 -14 25 -38 54 -52 65
-33 26 -100 48 -156 50 -37 2 -49 30 -47 110 3 92 9 112 48 149 39 37 50 67
44 122 -6 57 -25 86 -66 103 -43 18 -84 18 -129 0z"/>
<path d="M686 3157 c-107 -356 -220 -763 -232 -836 -4 -24 -6 -37 -19 -101 -9
-42 -8 -131 1 -140 5 -5 25 -11 44 -14 19 -3 44 -7 55 -10 11 -2 47 -7 80 -10
33 -4 74 -9 90 -11 72 -9 124 -15 180 -20 33 -4 76 -8 95 -10 141 -17 324 -24
334 -14 6 6 106 364 201 719 45 166 47 178 37 234 -7 35 -27 85 -51 126 -44
74 -77 95 -166 105 -27 3 -63 8 -80 10 -30 4 -60 8 -233 25 -54 6 -115 12
-137 15 -22 3 -70 7 -107 10 l-67 5 -25 -83z"/>
</g>
</svg>
